<?xml version="1.0" encoding="UTF-8"?>
<svg viewBox="0 0 40 40" xmlns="http://www.w3.org/2000/svg">
  <defs>
    <linearGradient id="cloverGradient" x1="0%" y1="0%" x2="100%" y2="100%">
      <stop offset="0%" style="stop-color:#22c55e;stop-opacity:1" />
      <stop offset="100%" style="stop-color:#15803d;stop-opacity:1" />
    </linearGradient>
  </defs>
  
  <!-- Shamrock/Clover Inspired -->
  <circle cx="20" cy="20" r="18" fill="url(#cloverGradient)"/>
  
  <!-- Three-leaf clover -->
  <g transform="translate(20, 20)">
    <!-- Stem -->
    <line x1="0" y1="6" x2="0" y2="-2" stroke="white" stroke-width="2" stroke-linecap="round"/>
    
    <!-- Three heart-shaped leaves -->
    <!-- Top leaf -->
    <path d="M0,-2 C-3,-6 -6,-6 -6,-2 C-6,1 -3,3 0,2 C3,3 6,1 6,-2 C6,-6 3,-6 0,-2Z" 
          fill="white" opacity="0.9" transform="translate(0,-4)"/>
    
    <!-- Left leaf -->
    <path d="M0,0 C-4,-3 -7,-3 -7,0 C-7,3 -4,5 0,4 C4,5 7,3 7,0 C7,-3 4,-3 0,0Z" 
          fill="white" opacity="0.9" transform="rotate(-120) translate(0,-4)"/>
    
    <!-- Right leaf -->
    <path d="M0,0 C-4,-3 -7,-3 -7,0 C-7,3 -4,5 0,4 C4,5 7,3 7,0 C7,-3 4,-3 0,0Z" 
          fill="white" opacity="0.9" transform="rotate(120) translate(0,-4)"/>
  </g>
</svg>
