<?xml version="1.0" encoding="UTF-8"?>
<svg viewBox="0 0 32 32" xmlns="http://www.w3.org/2000/svg">
  <defs>
    <linearGradient id="faviconLucky" x1="0%" y1="0%" x2="100%" y2="100%">
      <stop offset="0%" style="stop-color:#84cc16;stop-opacity:1" />
      <stop offset="100%" style="stop-color:#365314;stop-opacity:1" />
    </linearGradient>
  </defs>
  
  <!-- Favicon version of Four-Leaf Clover -->
  <circle cx="16" cy="16" r="14" fill="url(#faviconLucky)"/>
  
  <!-- Four leaves optimized for small size -->
  <g transform="translate(16, 16)">
    <path d="M0,-1 C-1,-3 -2,-3 -2,-1 C-2,0 -1,1 0,0Z" fill="white" opacity="0.95" transform="translate(0,-4)"/>
    <path d="M0,-1 C-1,-3 -2,-3 -2,-1 C-2,0 -1,1 0,0Z" fill="white" opacity="0.95" transform="rotate(90) translate(0,-4)"/>
    <path d="M0,-1 C-1,-3 -2,-3 -2,-1 C-2,0 -1,1 0,0Z" fill="white" opacity="0.95" transform="rotate(180) translate(0,-4)"/>
    <path d="M0,-1 C-1,-3 -2,-3 -2,-1 C-2,0 -1,1 0,0Z" fill="white" opacity="0.95" transform="rotate(270) translate(0,-4)"/>
    <circle cx="0" cy="0" r="1" fill="white" opacity="0.9"/>
  </g>
</svg>
