<?xml version="1.0" encoding="UTF-8"?>
<svg viewBox="0 0 40 40" xmlns="http://www.w3.org/2000/svg">
  <defs>
    <linearGradient id="luckyGreen" x1="0%" y1="0%" x2="100%" y2="100%">
      <stop offset="0%" style="stop-color:#84cc16;stop-opacity:1" />
      <stop offset="100%" style="stop-color:#365314;stop-opacity:1" />
    </linearGradient>
  </defs>
  
  <!-- Lucky Clover (Four Leaf) -->
  <circle cx="20" cy="20" r="18" fill="url(#luckyGreen)"/>
  
  <!-- Four-leaf clover for extra luck and impact -->
  <g transform="translate(20, 20)">
    <!-- Four teardrop/heart shapes -->
    <path d="M0,-2 C-2,-5 -4,-5 -4,-2 C-4,0 -2,1 0,0Z" fill="white" opacity="0.9" transform="translate(0,-5)"/>
    <path d="M0,-2 C-2,-5 -4,-5 -4,-2 C-4,0 -2,1 0,0Z" fill="white" opacity="0.9" transform="rotate(90) translate(0,-5)"/>
    <path d="M0,-2 C-2,-5 -4,-5 -4,-2 C-4,0 -2,1 0,0Z" fill="white" opacity="0.9" transform="rotate(180) translate(0,-5)"/>
    <path d="M0,-2 C-2,-5 -4,-5 -4,-2 C-4,0 -2,1 0,0Z" fill="white" opacity="0.9" transform="rotate(270) translate(0,-5)"/>
    
    <!-- Central dot -->
    <circle cx="0" cy="0" r="1.5" fill="white" opacity="0.8"/>
  </g>
</svg>
